<svg id="visual" viewBox="0 0 960 540" width="960" height="540" xmlns="http://www.w3.org/2000/svg" xmlns:xlink="http://www.w3.org/1999/xlink" version="1.1"><rect x="0" y="0" width="960" height="540" fill="#1e1e2a"></rect><defs><linearGradient id="grad1_0" x1="43.8%" y1="0%" x2="100%" y2="100%"><stop offset="14.444444444444446%" stop-color="#4017e8" stop-opacity="1"></stop><stop offset="85.55555555555554%" stop-color="#4017e8" stop-opacity="1"></stop></linearGradient></defs><defs><linearGradient id="grad1_1" x1="43.8%" y1="0%" x2="100%" y2="100%"><stop offset="14.444444444444446%" stop-color="#4017e8" stop-opacity="1"></stop><stop offset="85.55555555555554%" stop-color="#1e1e2a" stop-opacity="1"></stop></linearGradient></defs><defs><linearGradient id="grad2_0" x1="0%" y1="0%" x2="56.3%" y2="100%"><stop offset="14.444444444444446%" stop-color="#4017e8" stop-opacity="1"></stop><stop offset="85.55555555555554%" stop-color="#4017e8" stop-opacity="1"></stop></linearGradient></defs><defs><linearGradient id="grad2_1" x1="0%" y1="0%" x2="56.3%" y2="100%"><stop offset="14.444444444444446%" stop-color="#1e1e2a" stop-opacity="1"></stop><stop offset="85.55555555555554%" stop-color="#4017e8" stop-opacity="1"></stop></linearGradient></defs><g transform="translate(960, 0)"><path d="M0 378C-34.5 362.7 -69 347.5 -110.6 340.5C-152.3 333.5 -201.2 334.8 -222.2 305.8C-243.2 276.8 -236.4 217.4 -248.4 180.5C-260.3 143.5 -291 128.9 -315.8 102.6C-340.5 76.3 -359.2 38.1 -378 0L0 0Z" fill="#1e2989"></path><path d="M0 189C-17.2 181.4 -34.5 173.7 -55.3 170.2C-76.1 166.8 -100.6 167.4 -111.1 152.9C-121.6 138.4 -118.2 108.7 -124.2 90.2C-130.2 71.7 -145.5 64.5 -157.9 51.3C-170.2 38.1 -179.6 19.1 -189 0L0 0Z" fill="#4017e8"></path></g><g transform="translate(0, 540)"><path d="M0 -378C44.1 -380.4 88.1 -382.8 116.8 -359.5C145.5 -336.2 158.7 -287.2 191 -262.9C223.3 -238.6 274.7 -239 296.1 -215.1C317.5 -191.2 309 -143.1 317.7 -103.2C326.3 -63.3 352.2 -31.7 378 0L0 0Z" fill="#1e2989"></path><path d="M0 -189C22 -190.2 44.1 -191.4 58.4 -179.7C72.7 -168.1 79.4 -143.6 95.5 -131.5C111.7 -119.3 137.3 -119.5 148.1 -107.6C158.8 -95.6 154.5 -71.6 158.8 -51.6C163.2 -31.7 176.1 -15.8 189 0L0 0Z" fill="#4017e8"></path></g></svg>