<svg xmlns="http://www.w3.org/2000/svg" version="1.1" xmlns:xlink="http://www.w3.org/1999/xlink" xmlns:svgjs="http://svgjs.com/svgjs" width="1440" height="560" preserveAspectRatio="none" viewBox="0 0 1440 560"><g mask="url(&quot;#SvgjsMask1043&quot;)" fill="none"><rect width="1440" height="560" x="0" y="0" fill="rgba(1, 1, 37, 1)"></rect><rect width="372" height="372" clip-path="url(&quot;#SvgjsClipPath1044&quot;)" x="570.52" y="11.25" fill="url(#SvgjsPattern1045)" transform="rotate(12.04, 756.52, 197.25)"></rect><rect width="207.36" height="207.36" clip-path="url(&quot;#SvgjsClipPath1046&quot;)" x="1068.38" y="444.37" fill="url(#SvgjsPattern1047)" transform="rotate(204.56, 1172.06, 548.05)"></rect><path d="M1186.61 554.26L1196.17 545.73 1206.58 553.18 1216.14 544.66 1226.56 552.11 1236.11 543.58 1246.53 551.03M1187.04 562.25L1196.6 553.72 1207.01 561.17 1216.57 552.65 1226.99 560.1 1236.54 551.57 1246.96 559.02" stroke="rgba(1, 76, 6, 1)" stroke-width="1"></path><path d="M492.04 128.09 L615.27 219.97L653.3221213352334 74.3628786647666z" fill="rgba(82, 4, 4, 1)"></path><rect width="370.48" height="370.48" clip-path="url(&quot;#SvgjsClipPath1048&quot;)" x="78.08" y="371.32" fill="url(#SvgjsPattern1049)" transform="rotate(213.96, 263.32, 556.56)"></rect><path d="M1013.8 337.14L1001.06 335.89 999.48 323.18 986.74 321.93 985.16 309.22 972.41 307.97 970.83 295.26M1019.39 331.41L1006.64 330.16 1005.06 317.45 992.32 316.2 990.74 303.49 978 302.24 976.42 289.53" stroke="rgba(82, 4, 4, 1)" stroke-width="1.21" stroke-dasharray="3, 2"></path><path d="M310.07 125L297.28 125.67 293.82 113.34 281.03 114.01 277.57 101.67 264.79 102.34 261.33 90.01M314.73 118.5L301.95 119.17 298.49 106.84 285.7 107.51 282.24 95.18 269.45 95.84 265.99 83.51M319.4 112L306.61 112.67 303.15 100.34 290.36 101.01 286.9 88.68 274.12 89.34 270.66 77.01" stroke="rgba(235, 55, 228, 1)" stroke-width="1" stroke-dasharray="3, 2"></path><rect width="240" height="240" clip-path="url(&quot;#SvgjsClipPath1050&quot;)" x="-42.82" y="106.34" fill="url(#SvgjsPattern1051)" transform="rotate(212.46, 77.18, 226.34)"></rect><rect width="333.12" height="333.12" clip-path="url(&quot;#SvgjsClipPath1052&quot;)" x="602.58" y="369.63" fill="url(#SvgjsPattern1053)" transform="rotate(311.62, 769.14, 536.19)"></rect><rect width="127.8" height="127.8" clip-path="url(&quot;#SvgjsClipPath1054&quot;)" x="947.23" y="-33.12" fill="url(#SvgjsPattern1055)" transform="rotate(90.04, 1011.13, 30.78)"></rect><circle r="65.22764378465581" cx="1383.12" cy="467.13" fill="rgba(235, 55, 228, 1)"></circle><path d="M287.54 1.64L275.09-1.35 275.28-14.16 262.83-17.16 263.02-29.96 250.57-32.96 250.77-45.77M293.86-3.26L281.41-6.26 281.6-19.06 269.15-22.06 269.34-34.87 256.89-37.86 257.09-50.67" stroke="rgba(235, 55, 228, 1)" stroke-width="1" stroke-dasharray="2, 2"></path></g><defs><mask id="SvgjsMask1043"><rect width="1440" height="560" fill="#ffffff"></rect></mask><pattern x="0" y="0" width="6" height="6" patternUnits="userSpaceOnUse" id="SvgjsPattern1045"><path d="M3 1L3 5M1 3L5 3" stroke="rgba(1, 76, 6, 1)" fill="none" stroke-width="1"></path></pattern><clipPath id="SvgjsClipPath1044"><circle r="93" cx="756.52" cy="197.25"></circle></clipPath><pattern x="0" y="0" width="11.52" height="11.52" patternUnits="userSpaceOnUse" id="SvgjsPattern1047"><path d="M5.76 1L5.76 10.52M1 5.76L10.52 5.76" stroke="rgba(82, 4, 4, 1)" fill="none" stroke-width="1.4"></path></pattern><clipPath id="SvgjsClipPath1046"><circle r="51.84" cx="1172.06" cy="548.05"></circle></clipPath><pattern x="0" y="0" width="8.42" height="8.42" patternUnits="userSpaceOnUse" id="SvgjsPattern1049"><path d="M0 8.42L4.21 0L8.42 8.42" stroke="rgba(235, 55, 228, 1)" fill="none"></path></pattern><clipPath id="SvgjsClipPath1048"><circle r="92.62" cx="263.32" cy="556.56"></circle></clipPath><pattern x="0" y="0" width="6" height="6" patternUnits="userSpaceOnUse" id="SvgjsPattern1051"><path d="M0 6L3 0L6 6" stroke="rgba(82, 4, 4, 1)" fill="none"></path></pattern><clipPath id="SvgjsClipPath1050"><circle r="60" cx="77.18" cy="226.34"></circle></clipPath><pattern x="0" y="0" width="13.88" height="13.88" patternUnits="userSpaceOnUse" id="SvgjsPattern1053"><path d="M6.94 1L6.94 12.88M1 6.94L12.88 6.94" stroke="rgba(235, 55, 228, 1)" fill="none" stroke-width="2.01"></path></pattern><clipPath id="SvgjsClipPath1052"><circle r="83.28" cx="769.14" cy="536.19"></circle></clipPath><pattern x="0" y="0" width="127.8" height="12.78" patternUnits="userSpaceOnUse" id="SvgjsPattern1055"><rect width="127.8" height="6.39" x="0" y="0" fill="rgba(235, 55, 228, 1)"></rect><rect width="127.8" height="6.39" x="0" y="6.39" fill="rgba(0, 0, 0, 0)"></rect></pattern><clipPath id="SvgjsClipPath1054"><circle r="31.95" cx="1011.13" cy="30.78"></circle></clipPath></defs></svg>