<svg xmlns="http://www.w3.org/2000/svg" version="1.1" xmlns:xlink="http://www.w3.org/1999/xlink" xmlns:svgjs="http://svgjs.com/svgjs" width="1440" height="560" preserveAspectRatio="none" viewBox="0 0 1440 560"><g mask="url(&quot;#SvgjsMask1001&quot;)" fill="none"><rect width="1440" height="560" x="0" y="0" fill="rgba(1, 1, 37, 1)"></rect><path d="M1112.62 227.17L1147.81 227.17L1147.81 239.43L1112.62 239.43z" fill="#037b0b"></path><path d="M1254.42 293.53L1273.64 293.53L1273.64 346.42L1254.42 346.42z" fill="#d3b714"></path><path d="M638.92 288.69 a10.1 10.1 0 1 0 20.2 0 a10.1 10.1 0 1 0 -20.2 0z" stroke="#e73635"></path><path d="M827.95 376.11 a15.2 15.2 0 1 0 30.4 0 a15.2 15.2 0 1 0 -30.4 0z" fill="#e73635"></path><path d="M1269.07 145L1288.51 145L1288.51 191.75L1269.07 191.75z" stroke="#e73635"></path><path d="M338.61 395.25L347.93 395.25L347.93 427.59L338.61 427.59z" fill="#e73635"></path><path d="M378.57 402.51 a51.33 51.33 0 1 0 102.66 0 a51.33 51.33 0 1 0 -102.66 0z" fill="#037b0b"></path><path d="M910.67 499.25L943.2 499.25L943.2 531.78L910.67 531.78z" fill="#037b0b"></path><path d="M744.86 312.69a5.16 5.16 0 1 0-3.48-9.71z" stroke="#e73635"></path><path d="M615.53 102.37 a32.61 32.61 0 1 0 65.22 0 a32.61 32.61 0 1 0 -65.22 0z" fill="#037b0b"></path><path d="M1297.38 263.79L1340.27 263.79L1340.27 310.05L1297.38 310.05z" fill="#e73635"></path><path d="M1225.13 271.59a10.79 10.79 0 1 0 16.65 13.72z" fill="#037b0b"></path><path d="M779.1 229.62L829.17 229.62L829.17 279.69L779.1 279.69z" fill="#d3b714"></path><path d="M320.61 376.37 a31.26 31.26 0 1 0 62.52 0 a31.26 31.26 0 1 0 -62.52 0z" stroke="#e73635"></path><path d="M1203.26 344.83L1229.96 344.83L1229.96 371.53L1203.26 371.53z" stroke="#037b0b"></path><path d="M242.49 493.84L290.7 493.84L290.7 542.05L242.49 542.05z" stroke="#e73635"></path><path d="M829.06 131.44 a3.14 3.14 0 1 0 6.28 0 a3.14 3.14 0 1 0 -6.28 0z" fill="#e73635"></path><path d="M96.45 150.78a42.45 42.45 0 1 0 53.92-65.58z" fill="#e73635"></path><path d="M937.99 526.25a34.66 34.66 0 1 0 54.44 42.91z" fill="#d3b714"></path><path d="M853.28 536.57L889.62 536.57L889.62 551.47L853.28 551.47z" stroke="#037b0b"></path><path d="M1213.02 329.51 a4.08 4.08 0 1 0 8.16 0 a4.08 4.08 0 1 0 -8.16 0z" stroke="#037b0b"></path><path d="M1284.36 402.8L1300.51 402.8L1300.51 455.86L1284.36 455.86z" fill="#d3b714"></path><path d="M989.32 337.05a0.19 0.19 0 1 0-0.3-0.22z" stroke="#037b0b"></path><path d="M948.26 62.01 a29.15 29.15 0 1 0 58.3 0 a29.15 29.15 0 1 0 -58.3 0z" stroke="#037b0b"></path><path d="M263.54 43.94 a11.15 11.15 0 1 0 22.3 0 a11.15 11.15 0 1 0 -22.3 0z" fill="#037b0b"></path><path d="M1160.53 271.5L1164.77 271.5L1164.77 275.74L1160.53 275.74z" fill="#d3b714"></path><path d="M1089.67 347.6a34.34 34.34 0 1 0-64.96-22.28z" fill="#e73635"></path><path d="M868.5 554.5L888.71 554.5L888.71 574.71L868.5 574.71z" fill="#037b0b"></path><path d="M20.92 475.65 a51.92 51.92 0 1 0 103.84 0 a51.92 51.92 0 1 0 -103.84 0z" fill="#d3b714"></path><path d="M759.97 488.17a52.04 52.04 0 1 0 97.64 36.06z" fill="#037b0b"></path><path d="M830.08 544.93L852.3 544.93L852.3 600.3L830.08 600.3z" stroke="#d3b714"></path><path d="M338.3 3.46L374.11 3.46L374.11 6.39L338.3 6.39z" fill="#037b0b"></path><path d="M1254.64 467.55a40.85 40.85 0 1 0-4.9 81.55z" fill="#d3b714"></path></g><defs><mask id="SvgjsMask1001"><rect width="1440" height="560" fill="#ffffff"></rect></mask></defs></svg>