<svg xmlns="http://www.w3.org/2000/svg" version="1.1" xmlns:xlink="http://www.w3.org/1999/xlink" xmlns:svgjs="http://svgjs.com/svgjs" width="1440" height="560" preserveAspectRatio="none" viewBox="0 0 1440 560"><g mask="url(&quot;#SvgjsMask1023&quot;)" fill="none"><rect width="1440" height="560" x="0" y="0" fill="rgba(1, 1, 37, 1)"></rect><path d="M 0,209 C 57.6,192 172.8,124.4 288,124 C 403.2,123.6 460.8,207.6 576,207 C 691.2,206.4 748.8,125.6 864,121 C 979.2,116.4 1036.8,195.4 1152,184 C 1267.2,172.6 1382.4,88 1440,64L1440 560L0 560z" fill="rgba(34, 100, 171, 1)"></path><path d="M 0,371 C 96,393.4 288,488.6 480,483 C 672,477.4 768,337.2 960,343 C 1152,348.8 1344,478.2 1440,512L1440 560L0 560z" fill="rgba(1, 1, 37, 1)"></path></g><defs><mask id="SvgjsMask1023"><rect width="1440" height="560" fill="#ffffff"></rect></mask></defs></svg>