<svg xmlns="http://www.w3.org/2000/svg" version="1.1" xmlns:xlink="http://www.w3.org/1999/xlink" xmlns:svgjs="http://svgjs.com/svgjs" width="1440" height="560" preserveAspectRatio="none" viewBox="0 0 1440 560"><g mask="url(&quot;#SvgjsMask1009&quot;)" fill="none"><rect width="1440" height="560" x="0" y="0" fill="rgba(1, 1, 37, 1)"></rect><path d="M347.48 474.37a13.66 13.66 0 1 0-23.97-13.11z" fill="rgba(0, 62, 41, 1)"></path><path d="M1029.65 267.38L1031.12 267.38L1031.12 268.85L1029.65 268.85z" fill="rgba(112, 2, 2, 1)"></path><path d="M888.73 18.19 a46.23 46.23 0 1 0 92.46 0 a46.23 46.23 0 1 0 -92.46 0z" fill="rgba(0, 62, 41, 1)"></path><path d="M365.69 523.61a11.69 11.69 0 1 0-19.08 13.51z" fill="rgba(0, 62, 41, 1)"></path><path d="M1269.55 497.73a1.64 1.64 0 1 0-1.74 2.78z" stroke="rgba(112, 2, 2, 1)"></path><path d="M715.63 463.66L718.68 463.66L718.68 466.71L715.63 466.71z" stroke="rgba(255, 105, 180, 1)"></path><path d="M225.92 175.29L249.24 175.29L249.24 198.61L225.92 198.61z" fill="rgba(0, 62, 41, 1)"></path><path d="M1138.48 13.46a44.76 44.76 0 1 0-71.54 53.81z" fill="rgba(255, 105, 180, 1)"></path><path d="M632.12 70.35L649.85 70.35L649.85 123.25L632.12 123.25z" stroke="rgba(255, 105, 180, 1)"></path><path d="M1236.31 151.66L1291.89 151.66L1291.89 207.24L1236.31 207.24z" fill="rgba(112, 2, 2, 1)"></path><path d="M887.88 439.65L891.47 439.65L891.47 443.24L887.88 443.24z" stroke="rgba(0, 62, 41, 1)"></path><path d="M669.31 469.77a55.66 55.66 0 1 0-101.88 44.85z" fill="rgba(255, 105, 180, 1)"></path><path d="M697.82 233.14 a45.42 45.42 0 1 0 90.84 0 a45.42 45.42 0 1 0 -90.84 0z" stroke="rgba(112, 2, 2, 1)"></path><path d="M1165.35 556.32a1.09 1.09 0 1 0-0.27-2.17z" fill="rgba(0, 62, 41, 1)"></path><path d="M21.37 451.61L55.26 451.61L55.26 485.5L21.37 485.5z" stroke="rgba(255, 105, 180, 1)"></path><path d="M668.71 532.18 a16.73 16.73 0 1 0 33.46 0 a16.73 16.73 0 1 0 -33.46 0z" fill="rgba(0, 62, 41, 1)"></path><path d="M98.68 220.72L134.16 220.72L134.16 256.2L98.68 256.2z" stroke="rgba(112, 2, 2, 1)"></path><path d="M66.24 341.8 a34.2 34.2 0 1 0 68.4 0 a34.2 34.2 0 1 0 -68.4 0z" fill="rgba(112, 2, 2, 1)"></path><path d="M1241.45 66.03a10.71 10.71 0 1 0 3.42 21.15z" fill="rgba(255, 105, 180, 1)"></path><path d="M1420.61 215.31a5.32 5.32 0 1 0-9.19 5.36z" fill="rgba(255, 105, 180, 1)"></path><path d="M1430.75 118.35L1485.44 118.35L1485.44 173.04L1430.75 173.04z" stroke="rgba(0, 62, 41, 1)"></path><path d="M338.39 173.99 a42.25 42.25 0 1 0 84.5 0 a42.25 42.25 0 1 0 -84.5 0z" stroke="rgba(112, 2, 2, 1)"></path><path d="M713.78 68.39L756.32 68.39L756.32 110.93L713.78 110.93z" stroke="rgba(112, 2, 2, 1)"></path><path d="M842.6 28.6L884.89 28.6L884.89 70.89L842.6 70.89z" fill="rgba(0, 62, 41, 1)"></path><path d="M304.7 249.37L336.28 249.37L336.28 280.95L304.7 280.95z" fill="rgba(255, 105, 180, 1)"></path><path d="M406.91 450.18L454.74 450.18L454.74 498.01L406.91 498.01z" fill="rgba(0, 62, 41, 1)"></path><path d="M826.22 279.51L831.34 279.51L831.34 284.63L826.22 284.63z" fill="rgba(112, 2, 2, 1)"></path><path d="M69.51 35.69 a31.11 31.11 0 1 0 62.22 0 a31.11 31.11 0 1 0 -62.22 0z" stroke="rgba(0, 62, 41, 1)"></path><path d="M1250.72 512.66L1272.79 512.66L1272.79 534.73L1250.72 534.73z" stroke="rgba(112, 2, 2, 1)"></path><path d="M1004.55 506.47a30.71 30.71 0 1 0 25.9-55.69z" fill="rgba(0, 62, 41, 1)"></path><path d="M312.31 185.41 a28.21 28.21 0 1 0 56.42 0 a28.21 28.21 0 1 0 -56.42 0z" stroke="rgba(255, 105, 180, 1)"></path><path d="M343.03 19.99L358.18 19.99L358.18 43.54L343.03 43.54z" stroke="rgba(0, 62, 41, 1)"></path><path d="M1383.4 141.86L1402.26 141.86L1402.26 160.72L1383.4 160.72z" fill="rgba(0, 62, 41, 1)"></path></g><defs><mask id="SvgjsMask1009"><rect width="1440" height="560" fill="#ffffff"></rect></mask></defs></svg>